<mxfile host="app.diagrams.net" modified="2022-04-13T11:59:31.310Z" agent="5.0 (Macintosh; Intel Mac OS X 10_15_7) AppleWebKit/537.36 (KHTML, like Gecko) Chrome/100.0.4896.75 Safari/537.36" etag="8jpDvuO4RoRnQTfNVEIZ" version="17.4.0" type="github">
  <diagram id="IhITdvXgXg3FB1zQXZbh" name="Page-1">
    <mxGraphModel dx="1426" dy="709" grid="1" gridSize="10" guides="1" tooltips="1" connect="1" arrows="1" fold="1" page="1" pageScale="1" pageWidth="800" pageHeight="400" math="0" shadow="0">
      <root>
        <mxCell id="0" />
        <mxCell id="1" parent="0" />
        <mxCell id="oOMw5tAeE3X_yEJBU7zt-7" value="PropertyPattern" style="rounded=1;whiteSpace=wrap;html=1;spacingTop=0;spacingBottom=129;" vertex="1" parent="1">
          <mxGeometry x="35" y="190" width="710" height="150" as="geometry" />
        </mxCell>
        <mxCell id="oOMw5tAeE3X_yEJBU7zt-2" value="TypePattern&lt;br&gt;ProjectNode" style="rounded=1;whiteSpace=wrap;html=1;" vertex="1" parent="1">
          <mxGeometry x="560" y="90" width="120" height="60" as="geometry" />
        </mxCell>
        <mxCell id="oOMw5tAeE3X_yEJBU7zt-13" value="" style="edgeStyle=orthogonalEdgeStyle;rounded=0;orthogonalLoop=1;jettySize=auto;html=1;" edge="1" parent="1" source="oOMw5tAeE3X_yEJBU7zt-3" target="oOMw5tAeE3X_yEJBU7zt-2">
          <mxGeometry relative="1" as="geometry" />
        </mxCell>
        <mxCell id="oOMw5tAeE3X_yEJBU7zt-21" style="edgeStyle=orthogonalEdgeStyle;rounded=0;orthogonalLoop=1;jettySize=auto;html=1;exitX=0.5;exitY=1;exitDx=0;exitDy=0;entryX=0.5;entryY=0;entryDx=0;entryDy=0;" edge="1" parent="1" source="oOMw5tAeE3X_yEJBU7zt-3" target="oOMw5tAeE3X_yEJBU7zt-7">
          <mxGeometry relative="1" as="geometry" />
        </mxCell>
        <mxCell id="oOMw5tAeE3X_yEJBU7zt-3" value="WithPattern&lt;br&gt;PropertyPattern" style="rounded=1;whiteSpace=wrap;html=1;" vertex="1" parent="1">
          <mxGeometry x="330" y="90" width="120" height="60" as="geometry" />
        </mxCell>
        <mxCell id="oOMw5tAeE3X_yEJBU7zt-12" value="" style="edgeStyle=orthogonalEdgeStyle;rounded=0;orthogonalLoop=1;jettySize=auto;html=1;" edge="1" parent="1" source="oOMw5tAeE3X_yEJBU7zt-4" target="oOMw5tAeE3X_yEJBU7zt-3">
          <mxGeometry relative="1" as="geometry" />
        </mxCell>
        <mxCell id="oOMw5tAeE3X_yEJBU7zt-14" value="previous" style="edgeLabel;html=1;align=center;verticalAlign=middle;resizable=0;points=[];" vertex="1" connectable="0" parent="oOMw5tAeE3X_yEJBU7zt-12">
          <mxGeometry x="-0.3111" y="1" relative="1" as="geometry">
            <mxPoint x="9" y="-9" as="offset" />
          </mxGeometry>
        </mxCell>
        <mxCell id="oOMw5tAeE3X_yEJBU7zt-4" value="CapturePattern&lt;br&gt;Capture#1" style="rounded=1;whiteSpace=wrap;html=1;" vertex="1" parent="1">
          <mxGeometry x="120" y="90" width="120" height="60" as="geometry" />
        </mxCell>
        <mxCell id="oOMw5tAeE3X_yEJBU7zt-15" value="previous" style="edgeLabel;html=1;align=center;verticalAlign=middle;resizable=0;points=[];" vertex="1" connectable="0" parent="1">
          <mxGeometry x="500" y="110" as="geometry" />
        </mxCell>
        <mxCell id="oOMw5tAeE3X_yEJBU7zt-16" value="" style="group" vertex="1" connectable="0" parent="1">
          <mxGeometry x="58" y="225" width="300" height="95" as="geometry" />
        </mxCell>
        <mxCell id="oOMw5tAeE3X_yEJBU7zt-10" value="property" style="rounded=1;whiteSpace=wrap;html=1;fillColor=default;gradientColor=none;spacingTop=0;spacingBottom=75;" vertex="1" parent="oOMw5tAeE3X_yEJBU7zt-16">
          <mxGeometry width="300" height="95" as="geometry" />
        </mxCell>
        <mxCell id="oOMw5tAeE3X_yEJBU7zt-11" value="Lookup#resolve" style="rounded=1;whiteSpace=wrap;html=1;fillColor=default;gradientColor=none;" vertex="1" parent="oOMw5tAeE3X_yEJBU7zt-16">
          <mxGeometry x="90" y="25" width="120" height="60" as="geometry" />
        </mxCell>
        <mxCell id="oOMw5tAeE3X_yEJBU7zt-17" value="" style="group" vertex="1" connectable="0" parent="1">
          <mxGeometry x="428" y="225" width="300" height="95" as="geometry" />
        </mxCell>
        <mxCell id="oOMw5tAeE3X_yEJBU7zt-8" value="pattern" style="rounded=1;whiteSpace=wrap;html=1;fillColor=default;gradientColor=none;spacingTop=0;spacingBottom=75;" vertex="1" parent="oOMw5tAeE3X_yEJBU7zt-17">
          <mxGeometry width="300" height="95" as="geometry" />
        </mxCell>
        <mxCell id="oOMw5tAeE3X_yEJBU7zt-5" value="CapturePattern&lt;br&gt;Capture#2" style="rounded=1;whiteSpace=wrap;html=1;" vertex="1" parent="oOMw5tAeE3X_yEJBU7zt-17">
          <mxGeometry x="10" y="25" width="120" height="60" as="geometry" />
        </mxCell>
        <mxCell id="oOMw5tAeE3X_yEJBU7zt-6" value="TypePattern&lt;br&gt;TableScanNode" style="rounded=1;whiteSpace=wrap;html=1;" vertex="1" parent="oOMw5tAeE3X_yEJBU7zt-17">
          <mxGeometry x="160" y="25" width="120" height="60" as="geometry" />
        </mxCell>
      </root>
    </mxGraphModel>
  </diagram>
</mxfile>
